<svg version="1.1" id="Layer_1" xmlns="http://www.w3.org/2000/svg" xmlns:xlink="http://www.w3.org/1999/xlink" x="0px" y="0px"
	 width="100%" viewBox="0 0 800 280" enable-background="new 0 0 800 280" xml:space="preserve">
<path fill="#000000" opacity="1.000000" stroke="none" 
	d="
M513.000000,281.000000 
	C342.039459,281.000000 171.578918,281.000000 1.059192,281.000000 
	C1.059192,187.727768 1.059192,94.455475 1.059192,1.091594 
	C267.543854,1.091594 534.087769,1.091594 800.815796,1.091594 
	C800.815796,94.333046 800.815796,187.666489 800.815796,281.000000 
	C705.122192,281.000000 609.311096,281.000000 513.000000,281.000000 
M119.954552,149.049652 
	C117.592720,155.906143 116.284851,163.388000 112.660904,169.495621 
	C103.696915,184.603058 88.833031,190.097626 72.104652,190.867264 
	C60.853775,191.384872 49.559803,190.965820 38.093796,190.965820 
	C40.606411,199.399689 51.689747,216.959045 70.481972,230.858780 
	C95.083603,249.055450 122.724976,254.895966 153.185287,252.273621 
	C184.344009,249.591156 234.676865,214.060486 236.724579,190.988129 
	C233.414612,190.988129 230.136673,190.988129 226.420044,190.988129 
	C226.420044,166.787445 226.420044,142.945358 226.420044,119.103256 
	C225.055481,120.252487 224.430939,121.538628 223.848633,122.843628 
	C214.243347,144.370438 204.537170,165.853531 195.153549,187.476593 
	C193.700943,190.823868 191.786682,191.210495 188.730988,191.254944 
	C185.603317,191.300430 183.689407,190.721878 182.275772,187.462616 
	C174.348511,169.185638 166.141235,151.030014 158.015350,132.839294 
	C155.919357,128.147141 153.772156,123.477859 151.648468,118.798065 
	C151.327698,118.892082 151.006943,118.986107 150.686172,119.080124 
	C150.686172,143.014603 150.686172,166.949081 150.686172,190.880692 
	C146.220627,190.880692 142.138580,190.880692 138.052979,190.880692 
	C138.052979,157.676559 138.052979,124.756752 138.052979,91.503754 
	C140.626755,91.503754 142.984039,91.821365 145.222183,91.439888 
	C150.426620,90.552811 152.688690,92.944702 154.705963,97.582565 
	C165.168228,121.636185 176.028091,145.516861 186.751694,169.456787 
	C187.297516,170.675293 187.864273,171.884430 188.683594,173.669434 
	C189.584290,171.899597 190.147263,170.903503 190.612213,169.863571 
	C200.775940,147.130600 211.201736,124.508499 220.922409,101.587433 
	C223.957291,94.431297 227.185242,89.528740 235.805984,91.465401 
	C236.377808,91.593857 237.047745,91.285545 237.732208,91.170258 
	C222.187958,56.583263 181.392487,25.197742 128.557968,29.145517 
	C88.440338,32.143089 52.075462,58.121803 38.142197,90.835724 
	C39.935108,90.835724 41.540375,90.825859 43.145489,90.837341 
	C52.977169,90.907684 62.839813,90.511604 72.633934,91.155861 
	C92.189346,92.442200 107.938568,100.110275 116.152397,119.227333 
	C120.139503,128.507034 120.646751,138.238953 119.954552,149.049652 
M93.219742,172.786499 
	C105.461769,163.175461 107.727837,150.009827 106.507362,135.582901 
	C105.284409,121.126816 98.813644,110.212166 84.955597,104.754692 
	C73.365982,100.190559 61.187069,101.643394 49.099312,101.593361 
	C49.099312,128.132004 49.099312,154.085312 49.099312,180.159561 
	C56.240067,180.159561 63.201141,180.277618 70.156509,180.128738 
	C78.272003,179.955032 85.948700,178.148682 93.219742,172.786499 
M589.000549,108.517204 
	C589.000549,127.612984 589.000549,146.708771 589.000549,165.707855 
	C592.653381,165.707855 595.728149,165.707855 599.189331,165.707855 
	C599.189331,149.784637 599.189331,134.149826 599.189331,117.619736 
	C600.321899,119.725479 601.074219,120.921150 601.636230,122.200417 
	C607.438110,135.406723 613.243591,148.611740 618.959290,161.855392 
	C620.061523,164.409271 621.044128,166.186676 624.514404,166.165039 
	C627.961548,166.143555 628.957581,164.415939 630.051331,161.832397 
	C633.425842,153.861771 636.942078,145.950500 640.459656,138.041245 
	C643.399048,131.432068 646.417664,124.858147 649.401245,118.268608 
	C649.684204,118.352425 649.967163,118.436234 650.250122,118.520050 
	C650.250122,134.282959 650.250122,150.045853 650.250122,165.707031 
	C653.656860,165.707031 656.731689,165.707031 659.713501,165.707031 
	C659.713501,142.673233 659.713501,119.933517 659.713501,97.098419 
	C656.121643,97.098419 652.815918,97.098419 649.395447,97.098419 
	C641.172180,115.379135 632.958130,133.639191 624.578735,152.266968 
	C616.156006,133.563980 607.934265,115.307220 599.822327,97.294250 
	C596.033875,97.294250 592.613342,97.294250 589.000549,97.294250 
	C589.000549,100.898849 589.000549,104.211075 589.000549,108.517204 
M548.984192,123.828018 
	C548.324707,122.906639 547.621460,122.013176 547.012390,121.059616 
	C539.448059,109.217506 519.508667,105.909325 509.398773,117.072456 
	C508.495453,118.069908 507.378967,118.874321 505.707764,120.342804 
	C505.707764,116.632011 505.707764,113.873383 505.707764,111.000740 
	C504.712769,111.000740 504.058990,111.005348 503.405304,111.000031 
	C496.000977,110.939751 496.000671,110.939346 496.000641,118.141106 
	C496.000488,139.801239 496.000580,161.461380 496.000580,183.121521 
	C496.000580,192.537689 496.000610,192.537689 506.164307,191.628571 
	C506.164307,180.260773 506.164307,168.822205 506.164307,156.475815 
	C514.270386,168.833633 531.843811,169.975342 542.372192,161.175919 
	C552.207642,152.955643 554.854675,137.339020 548.984192,123.828018 
M305.000122,122.500000 
	C305.000122,136.926010 305.000122,151.352005 305.000122,166.475494 
	C316.132355,165.964645 326.768829,166.183609 337.183716,164.769928 
	C345.194824,163.682510 352.160217,159.853546 357.262451,152.581360 
	C362.875946,144.580414 363.447937,135.949783 362.954926,126.935890 
	C362.226685,113.622116 355.093323,104.775345 344.558655,100.026619 
	C331.781860,94.267235 318.344727,98.216507 305.000122,96.819679 
	C305.000122,105.549950 305.000122,113.524979 305.000122,122.500000 
M682.814209,114.017899 
	C673.577576,120.840935 670.049194,129.979385 670.915771,141.362671 
	C671.753174,152.362610 677.058350,161.680222 688.287415,165.610779 
	C698.791626,169.287552 708.112854,166.332657 716.149048,158.173599 
	C716.149048,160.901169 716.149048,163.308090 716.149048,165.762177 
	C719.543457,165.762177 722.616577,165.762177 725.998596,165.762177 
	C725.998596,148.261292 725.998596,130.996490 725.998596,113.731674 
	C725.998596,112.945091 725.998596,112.158501 725.998596,111.187874 
	C722.511047,111.187874 719.432007,111.187874 715.770630,111.187874 
	C715.770630,113.816841 715.770630,116.271408 715.770630,119.342979 
	C706.898926,108.978439 693.958435,107.967728 682.814209,114.017899 
M482.205139,141.999374 
	C483.134857,141.448257 484.778534,140.991882 484.866516,140.329041 
	C485.190247,137.889832 485.138641,135.373016 484.977905,132.901688 
	C483.748566,114.003014 462.999176,106.018944 447.652405,112.636497 
	C437.754913,116.904297 433.675293,124.813622 432.151947,134.359497 
	C430.741272,143.199371 432.847443,151.754669 439.078186,158.398056 
	C447.458435,167.333206 457.873688,169.029129 469.368622,165.178467 
	C477.128876,162.578903 481.746918,157.192780 484.465851,148.983963 
	C479.821594,149.676575 475.287811,146.984558 472.059570,151.569672 
	C467.532593,157.999313 459.325195,160.158707 452.188812,157.100815 
	C445.575531,154.267029 443.212585,148.796829 442.186615,142.289688 
	C442.619598,142.179504 442.940277,142.026917 443.261139,142.026474 
	C455.926666,142.008942 468.592194,142.005219 482.205139,141.999374 
M391.703064,111.000740 
	C377.892487,113.655663 369.183228,126.313789 371.145905,142.671875 
	C372.853363,156.902878 381.614655,165.927567 397.139618,167.002167 
	C410.780426,167.946365 422.164154,158.199997 422.793182,149.000671 
	C420.128693,149.000671 417.461304,148.806641 414.845642,149.089935 
	C413.693756,149.214676 412.235901,150.046082 411.619171,151.007248 
	C407.623962,157.233582 400.442780,159.948685 392.743011,157.908020 
	C386.655304,156.294571 381.673035,149.428284 381.373413,141.922180 
	C395.464630,141.922180 409.546173,141.922180 423.560425,141.922180 
	C427.646637,119.554382 409.621338,107.273193 391.703064,111.000740 
M735.359375,191.999832 
	C747.494873,190.956909 750.775452,186.981125 750.979187,176.149689 
	C751.091797,170.160950 750.999329,164.168335 750.999329,158.177475 
	C750.999329,142.578918 750.999329,126.980377 750.999329,111.196075 
	C747.530701,111.196075 744.463074,111.196075 741.000732,111.196075 
	C741.000732,113.006981 741.000793,114.628815 741.000793,116.250641 
	C741.000610,135.055313 741.000244,153.859970 741.000183,172.664642 
	C741.000122,182.765228 741.000244,182.761658 731.035950,183.060410 
	C730.767090,183.068481 730.506714,183.358658 730.262512,183.505188 
	C730.262512,186.279892 730.262512,189.020905 730.262512,191.999832 
	C731.827393,191.999832 733.132263,191.999832 735.359375,191.999832 
M35.826702,154.500076 
	C35.826702,135.212387 35.826702,115.924698 35.826702,95.769516 
	C22.660604,114.000031 22.980864,172.953873 35.826698,185.559662 
	C35.826698,175.442520 35.826698,165.471298 35.826702,154.500076 
M239.732376,145.499863 
	C239.732376,158.882736 239.732376,172.265610 239.732376,185.648483 
	C252.868210,155.879944 252.876068,126.119141 239.732208,96.353798 
	C239.732208,112.402481 239.732208,128.451157 239.732376,145.499863 
M774.999451,162.340332 
	C774.999451,145.253387 774.999451,128.166443 774.999451,111.348991 
	C771.241638,111.348991 768.166199,111.348991 765.345459,111.348991 
	C765.345459,129.776245 765.345459,147.853409 765.345459,165.998123 
	C768.020996,165.998123 770.392456,166.245361 772.663330,165.875092 
	C773.557678,165.729294 774.227295,164.204926 774.999451,162.340332 
M747.287842,102.997108 
	C750.774597,102.446365 752.528015,100.214615 751.872253,96.926811 
	C751.453796,94.828667 750.203796,91.849304 748.614990,91.291389 
	C746.535889,90.561317 742.927185,91.018822 741.505066,92.466782 
	C740.048096,93.950195 739.469238,97.660255 740.310364,99.622063 
	C741.035217,101.312729 744.297852,101.915337 747.287842,102.997108 
M771.712402,90.968788 
	C768.303833,89.563370 765.236023,90.717636 764.280090,93.846115 
	C763.347717,96.897484 762.981628,101.053337 767.199341,102.547569 
	C770.036804,103.552834 773.310913,103.884087 775.197632,100.340477 
	C777.158569,96.657471 776.192993,93.277924 771.712402,90.968788 
z"/>
<path fill="#FEFEFE" opacity="1.000000" stroke="none" 
	d="
M119.978729,148.589706 
	C120.646751,138.238953 120.139503,128.507034 116.152397,119.227333 
	C107.938568,100.110275 92.189346,92.442200 72.633934,91.155861 
	C62.839813,90.511604 52.977169,90.907684 43.145489,90.837341 
	C41.540375,90.825859 39.935108,90.835724 38.142197,90.835724 
	C52.075462,58.121803 88.440338,32.143089 128.557968,29.145517 
	C181.392487,25.197742 222.187958,56.583263 237.732208,91.170258 
	C237.047745,91.285545 236.377808,91.593857 235.805984,91.465401 
	C227.185242,89.528740 223.957291,94.431297 220.922409,101.587433 
	C211.201736,124.508499 200.775940,147.130600 190.612213,169.863571 
	C190.147263,170.903503 189.584290,171.899597 188.683594,173.669434 
	C187.864273,171.884430 187.297516,170.675293 186.751694,169.456787 
	C176.028091,145.516861 165.168228,121.636185 154.705963,97.582565 
	C152.688690,92.944702 150.426620,90.552811 145.222183,91.439888 
	C142.984039,91.821365 140.626755,91.503754 138.052979,91.503754 
	C138.052979,124.756752 138.052979,157.676559 138.052979,190.880692 
	C142.138580,190.880692 146.220627,190.880692 150.686172,190.880692 
	C150.686172,166.949081 150.686172,143.014603 150.686172,119.080124 
	C151.006943,118.986107 151.327698,118.892082 151.648468,118.798065 
	C153.772156,123.477859 155.919357,128.147141 158.015350,132.839294 
	C166.141235,151.030014 174.348511,169.185638 182.275772,187.462616 
	C183.689407,190.721878 185.603317,191.300430 188.730988,191.254944 
	C191.786682,191.210495 193.700943,190.823868 195.153549,187.476593 
	C204.537170,165.853531 214.243347,144.370438 223.848633,122.843628 
	C224.430939,121.538628 225.055481,120.252487 226.420044,119.103256 
	C226.420044,142.945358 226.420044,166.787445 226.420044,190.988129 
	C230.136673,190.988129 233.414612,190.988129 236.724579,190.988129 
	C234.676865,214.060486 184.344009,249.591156 153.185287,252.273621 
	C122.724976,254.895966 95.083603,249.055450 70.481972,230.858780 
	C51.689747,216.959045 40.606411,199.399689 38.093796,190.965820 
	C49.559803,190.965820 60.853775,191.384872 72.104652,190.867264 
	C88.833031,190.097626 103.696915,184.603058 112.660904,169.495621 
	C116.284851,163.388000 117.592720,155.906143 119.978729,148.589706 
z"/>
<path fill="#FEFEFE" opacity="1.000000" stroke="none" 
	d="
M92.920403,172.991455 
	C85.948700,178.148682 78.272003,179.955032 70.156509,180.128738 
	C63.201141,180.277618 56.240067,180.159561 49.099312,180.159561 
	C49.099312,154.085312 49.099312,128.132004 49.099312,101.593361 
	C61.187069,101.643394 73.365982,100.190559 84.955597,104.754692 
	C98.813644,110.212166 105.284409,121.126816 106.507362,135.582901 
	C107.727837,150.009827 105.461769,163.175461 92.920403,172.991455 
z"/>
<path fill="#FFFFFF" opacity="1.000000" stroke="none" 
	d="
M589.000549,108.020248 
	C589.000549,104.211075 589.000549,100.898849 589.000549,97.294250 
	C592.613342,97.294250 596.033875,97.294250 599.822327,97.294250 
	C607.934265,115.307220 616.156006,133.563980 624.578735,152.266968 
	C632.958130,133.639191 641.172180,115.379135 649.395447,97.098419 
	C652.815918,97.098419 656.121643,97.098419 659.713501,97.098419 
	C659.713501,119.933517 659.713501,142.673233 659.713501,165.707031 
	C656.731689,165.707031 653.656860,165.707031 650.250122,165.707031 
	C650.250122,150.045853 650.250122,134.282959 650.250122,118.520050 
	C649.967163,118.436234 649.684204,118.352425 649.401245,118.268608 
	C646.417664,124.858147 643.399048,131.432068 640.459656,138.041245 
	C636.942078,145.950500 633.425842,153.861771 630.051331,161.832397 
	C628.957581,164.415939 627.961548,166.143555 624.514404,166.165039 
	C621.044128,166.186676 620.061523,164.409271 618.959290,161.855392 
	C613.243591,148.611740 607.438110,135.406723 601.636230,122.200417 
	C601.074219,120.921150 600.321899,119.725479 599.189331,117.619736 
	C599.189331,134.149826 599.189331,149.784637 599.189331,165.707855 
	C595.728149,165.707855 592.653381,165.707855 589.000549,165.707855 
	C589.000549,146.708771 589.000549,127.612984 589.000549,108.020248 
z"/>
<path fill="#FFFFFF" opacity="1.000000" stroke="none" 
	d="
M549.043091,124.215118 
	C554.854675,137.339020 552.207642,152.955643 542.372192,161.175919 
	C531.843811,169.975342 514.270386,168.833633 506.164307,156.475815 
	C506.164307,168.822205 506.164307,180.260773 506.164307,191.628571 
	C496.000610,192.537689 496.000580,192.537689 496.000580,183.121521 
	C496.000580,161.461380 496.000488,139.801239 496.000641,118.141106 
	C496.000671,110.939346 496.000977,110.939751 503.405304,111.000031 
	C504.058990,111.005348 504.712769,111.000740 505.707764,111.000740 
	C505.707764,113.873383 505.707764,116.632011 505.707764,120.342804 
	C507.378967,118.874321 508.495453,118.069908 509.398773,117.072456 
	C519.508667,105.909325 539.448059,109.217506 547.012390,121.059616 
	C547.621460,122.013176 548.324707,122.906639 549.043091,124.215118 
M506.997253,141.621811 
	C507.389618,149.861984 512.437561,154.714905 519.389099,157.727829 
	C524.114441,159.775894 533.379150,156.828018 536.846985,152.602097 
	C545.466553,142.098038 543.690735,125.059807 529.373291,119.867592 
	C523.788147,117.842125 518.531555,118.788048 513.963867,122.559517 
	C508.251465,127.276169 505.564819,133.270035 506.997253,141.621811 
z"/>
<path fill="#FFFFFF" opacity="1.000000" stroke="none" 
	d="
M305.000122,122.000000 
	C305.000122,113.524979 305.000122,105.549950 305.000122,96.819679 
	C318.344727,98.216507 331.781860,94.267235 344.558655,100.026619 
	C355.093323,104.775345 362.226685,113.622116 362.954926,126.935890 
	C363.447937,135.949783 362.875946,144.580414 357.262451,152.581360 
	C352.160217,159.853546 345.194824,163.682510 337.183716,164.769928 
	C326.768829,166.183609 316.132355,165.964645 305.000122,166.475494 
	C305.000122,151.352005 305.000122,136.926010 305.000122,122.000000 
M349.625061,116.099007 
	C341.225281,102.924385 328.084991,104.892998 315.361389,105.132248 
	C315.361389,122.906029 315.361389,140.422714 315.361389,158.390915 
	C322.319824,157.906754 329.128143,158.363480 335.365631,156.691071 
	C339.973999,155.455460 344.858490,152.256271 347.835754,148.512894 
	C355.597198,138.754257 354.401611,127.728088 349.625061,116.099007 
z"/>
<path fill="#FFFFFF" opacity="1.000000" stroke="none" 
	d="
M683.193970,113.967560 
	C693.958435,107.967728 706.898926,108.978439 715.770630,119.342979 
	C715.770630,116.271408 715.770630,113.816841 715.770630,111.187874 
	C719.432007,111.187874 722.511047,111.187874 725.998596,111.187874 
	C725.998596,112.158501 725.998596,112.945091 725.998596,113.731674 
	C725.998596,130.996490 725.998596,148.261292 725.998596,165.762177 
	C722.616577,165.762177 719.543457,165.762177 716.149048,165.762177 
	C716.149048,163.308090 716.149048,160.901169 716.149048,158.173599 
	C708.112854,166.332657 698.791626,169.287552 688.287415,165.610779 
	C677.058350,161.680222 671.753174,152.362610 670.915771,141.362671 
	C670.049194,129.979385 673.577576,120.840935 683.193970,113.967560 
M701.968933,157.982895 
	C713.727966,154.340027 716.974854,145.599274 715.898438,135.474472 
	C715.073853,127.718010 710.949829,121.982063 703.095398,119.598267 
	C696.480042,117.590523 690.942505,119.864899 686.233643,124.342155 
	C680.824036,129.485718 679.250793,139.551590 682.485596,146.985779 
	C686.020630,155.109802 692.260071,158.790421 701.968933,157.982895 
z"/>
<path fill="#FFFFFF" opacity="1.000000" stroke="none" 
	d="
M481.731445,141.999542 
	C468.592194,142.005219 455.926666,142.008942 443.261139,142.026474 
	C442.940277,142.026917 442.619598,142.179504 442.186615,142.289688 
	C443.212585,148.796829 445.575531,154.267029 452.188812,157.100815 
	C459.325195,160.158707 467.532593,157.999313 472.059570,151.569672 
	C475.287811,146.984558 479.821594,149.676575 484.465851,148.983963 
	C481.746918,157.192780 477.128876,162.578903 469.368622,165.178467 
	C457.873688,169.029129 447.458435,167.333206 439.078186,158.398056 
	C432.847443,151.754669 430.741272,143.199371 432.151947,134.359497 
	C433.675293,124.813622 437.754913,116.904297 447.652405,112.636497 
	C462.999176,106.018944 483.748566,114.003014 484.977905,132.901688 
	C485.138641,135.373016 485.190247,137.889832 484.866516,140.329041 
	C484.778534,140.991882 483.134857,141.448257 481.731445,141.999542 
M445.463257,126.017601 
	C444.306854,128.553299 443.150452,131.089005 441.920563,133.785873 
	C453.329834,133.785873 464.097992,133.785873 474.868958,133.785873 
	C474.661285,127.370506 470.762970,121.520927 465.825256,120.012016 
	C457.572723,117.490143 449.770905,119.619125 445.463257,126.017601 
z"/>
<path fill="#FFFFFF" opacity="1.000000" stroke="none" 
	d="
M392.133636,111.000549 
	C409.621338,107.273193 427.646637,119.554382 423.560425,141.922180 
	C409.546173,141.922180 395.464630,141.922180 381.373413,141.922180 
	C381.673035,149.428284 386.655304,156.294571 392.743011,157.908020 
	C400.442780,159.948685 407.623962,157.233582 411.619171,151.007248 
	C412.235901,150.046082 413.693756,149.214676 414.845642,149.089935 
	C417.461304,148.806641 420.128693,149.000671 422.793182,149.000671 
	C422.164154,158.199997 410.780426,167.946365 397.139618,167.002167 
	C381.614655,165.927567 372.853363,156.902878 371.145905,142.671875 
	C369.183228,126.313789 377.892487,113.655663 392.133636,111.000549 
M408.245758,122.023033 
	C398.017822,115.370972 382.744965,119.583946 381.622772,133.762222 
	C392.367279,133.762222 403.120758,133.762222 415.610260,133.762222 
	C413.018707,129.360428 410.971130,125.882622 408.245758,122.023033 
z"/>
<path fill="#FFFFFF" opacity="1.000000" stroke="none" 
	d="
M734.898193,191.999832 
	C733.132263,191.999832 731.827393,191.999832 730.262512,191.999832 
	C730.262512,189.020905 730.262512,186.279892 730.262512,183.505188 
	C730.506714,183.358658 730.767090,183.068481 731.035950,183.060410 
	C741.000244,182.761658 741.000122,182.765228 741.000183,172.664642 
	C741.000244,153.859970 741.000610,135.055313 741.000793,116.250641 
	C741.000793,114.628815 741.000732,113.006981 741.000732,111.196075 
	C744.463074,111.196075 747.530701,111.196075 750.999329,111.196075 
	C750.999329,126.980377 750.999329,142.578918 750.999329,158.177475 
	C750.999329,164.168335 751.091797,170.160950 750.979187,176.149689 
	C750.775452,186.981125 747.494873,190.956909 734.898193,191.999832 
z"/>
<path fill="#F5F5F5" opacity="1.000000" stroke="none" 
	d="
M35.826698,155.000092 
	C35.826698,165.471298 35.826698,175.442520 35.826698,185.559662 
	C22.980864,172.953873 22.660604,114.000031 35.826702,95.769516 
	C35.826702,115.924698 35.826702,135.212387 35.826698,155.000092 
z"/>
<path fill="#FFFFFF" opacity="1.000000" stroke="none" 
	d="
M239.732300,144.999847 
	C239.732208,128.451157 239.732208,112.402481 239.732208,96.353798 
	C252.876068,126.119141 252.868210,155.879944 239.732376,185.648483 
	C239.732376,172.265610 239.732376,158.882736 239.732300,144.999847 
z"/>
<path fill="#FFFFFF" opacity="1.000000" stroke="none" 
	d="
M774.999329,162.824326 
	C774.227295,164.204926 773.557678,165.729294 772.663330,165.875092 
	C770.392456,166.245361 768.020996,165.998123 765.345459,165.998123 
	C765.345459,147.853409 765.345459,129.776245 765.345459,111.348991 
	C768.166199,111.348991 771.241638,111.348991 774.999451,111.348991 
	C774.999451,128.166443 774.999451,145.253387 774.999329,162.824326 
z"/>
<path fill="#FFFFFF" opacity="1.000000" stroke="none" 
	d="
M746.863159,102.998055 
	C744.297852,101.915337 741.035217,101.312729 740.310364,99.622063 
	C739.469238,97.660255 740.048096,93.950195 741.505066,92.466782 
	C742.927185,91.018822 746.535889,90.561317 748.614990,91.291389 
	C750.203796,91.849304 751.453796,94.828667 751.872253,96.926811 
	C752.528015,100.214615 750.774597,102.446365 746.863159,102.998055 
z"/>
<path fill="#FFFFFF" opacity="1.000000" stroke="none" 
	d="
M772.112793,90.985046 
	C776.192993,93.277924 777.158569,96.657471 775.197632,100.340477 
	C773.310913,103.884087 770.036804,103.552834 767.199341,102.547569 
	C762.981628,101.053337 763.347717,96.897484 764.280090,93.846115 
	C765.236023,90.717636 768.303833,89.563370 772.112793,90.985046 
z"/>
<path fill="#000000" opacity="1.000000" stroke="none" 
	d="
M506.981415,141.198944 
	C505.564819,133.270035 508.251465,127.276169 513.963867,122.559517 
	C518.531555,118.788048 523.788147,117.842125 529.373291,119.867592 
	C543.690735,125.059807 545.466553,142.098038 536.846985,152.602097 
	C533.379150,156.828018 524.114441,159.775894 519.389099,157.727829 
	C512.437561,154.714905 507.389618,149.861984 506.981415,141.198944 
z"/>
<path fill="#000000" opacity="1.000000" stroke="none" 
	d="
M349.803345,116.445633 
	C354.401611,127.728088 355.597198,138.754257 347.835754,148.512894 
	C344.858490,152.256271 339.973999,155.455460 335.365631,156.691071 
	C329.128143,158.363480 322.319824,157.906754 315.361389,158.390915 
	C315.361389,140.422714 315.361389,122.906029 315.361389,105.132248 
	C328.084991,104.892998 341.225281,102.924385 349.803345,116.445633 
z"/>
<path fill="#000000" opacity="1.000000" stroke="none" 
	d="
M701.537598,157.991058 
	C692.260071,158.790421 686.020630,155.109802 682.485596,146.985779 
	C679.250793,139.551590 680.824036,129.485718 686.233643,124.342155 
	C690.942505,119.864899 696.480042,117.590523 703.095398,119.598267 
	C710.949829,121.982063 715.073853,127.718010 715.898438,135.474472 
	C716.974854,145.599274 713.727966,154.340027 701.537598,157.991058 
z"/>
<path fill="#000000" opacity="1.000000" stroke="none" 
	d="
M445.710938,125.725433 
	C449.770905,119.619125 457.572723,117.490143 465.825256,120.012016 
	C470.762970,121.520927 474.661285,127.370506 474.868958,133.785873 
	C464.097992,133.785873 453.329834,133.785873 441.920563,133.785873 
	C443.150452,131.089005 444.306854,128.553299 445.710938,125.725433 
z"/>
<path fill="#000000" opacity="1.000000" stroke="none" 
	d="
M408.584656,122.213921 
	C410.971130,125.882622 413.018707,129.360428 415.610260,133.762222 
	C403.120758,133.762222 392.367279,133.762222 381.622772,133.762222 
	C382.744965,119.583946 398.017822,115.370972 408.584656,122.213921 
z"/>
</svg>